<?xml version="1.0" encoding="utf-8"?>
<!-- Generator: Adobe Illustrator 17.0.0, SVG Export Plug-In . SVG Version: 6.00 Build 0)  -->
<!DOCTYPE svg PUBLIC "-//W3C//DTD SVG 1.1//EN" "http://www.w3.org/Graphics/SVG/1.1/DTD/svg11.dtd">
<svg version="1.1" id="Camada_1" xmlns="http://www.w3.org/2000/svg" xmlns:xlink="http://www.w3.org/1999/xlink" x="0px" y="0px"
	 width="595px" height="389.201px" viewBox="0 0 595 389.201" enable-background="new 0 0 595 389.201" xml:space="preserve">
<g>
	<path fill-rule="evenodd" clip-rule="evenodd" d="M537.128,304.289h-36.675l-39.115-35.726v35.726h-31.79v-76.448h45.523
		l1.68,0.005l1.654,0.016l1.627,0.026l1.601,0.037l1.574,0.047l1.548,0.058l1.522,0.069l1.495,0.079l1.469,0.089l1.442,0.1
		l1.415,0.111l1.389,0.121l1.362,0.132l1.336,0.143l1.309,0.153l1.283,0.164l1.256,0.174l1.229,0.185l1.203,0.195l1.176,0.206
		l1.149,0.216l1.122,0.227l1.096,0.237l1.07,0.248l1.042,0.258l1.016,0.269l0.989,0.279l0.963,0.29l0.936,0.3l0.909,0.312
		l0.882,0.322l0.855,0.333l0.832,0.343l0.806,0.354l0.779,0.364l0.753,0.375l0.726,0.385l0.7,0.397l0.673,0.407l0.647,0.418
		l0.62,0.429l0.594,0.439l0.568,0.45l0.541,0.461l0.515,0.471l0.489,0.482l0.462,0.493l0.436,0.504l0.409,0.514l0.383,0.525
		l0.357,0.535l0.33,0.546l0.303,0.557l0.277,0.567l0.251,0.578l0.225,0.589l0.198,0.599l0.172,0.609l0.145,0.62l0.119,0.631
		l0.092,0.641l0.066,0.652l0.04,0.663l0.013,0.673l-0.009,0.49l-0.027,0.486l-0.046,0.481l-0.063,0.477l-0.082,0.473l-0.099,0.468
		l-0.118,0.464l-0.135,0.46l-0.154,0.454l-0.172,0.45l-0.19,0.446l-0.208,0.441l-0.226,0.437l-0.244,0.432l-0.262,0.428l-0.28,0.423
		l-0.298,0.418l-0.316,0.414l-0.334,0.41l-0.353,0.405l-0.371,0.4l-0.389,0.397l-0.407,0.392l-0.425,0.388l-0.443,0.383
		l-0.461,0.378l-0.479,0.374l-0.497,0.37l-0.515,0.365l-0.533,0.361l-0.552,0.356l-0.569,0.352l-0.581,0.344l-0.591,0.336
		l-0.602,0.326l-0.613,0.318l-0.624,0.308l-0.634,0.299l-0.645,0.291l-0.656,0.281l-0.667,0.272l-0.677,0.263l-0.688,0.253
		l-0.698,0.245l-0.709,0.236l-0.719,0.227l-0.73,0.217l-0.74,0.208l-0.752,0.199l-0.762,0.19l-0.772,0.181l-0.783,0.172
		l-0.794,0.163l-0.803,0.154l-0.815,0.145l-0.825,0.136l-0.836,0.126l-0.846,0.117l-0.856,0.109l-0.866,0.099l-0.877,0.09
		l-0.887,0.082l-0.898,0.072l-0.915,0.064L537.128,304.289L537.128,304.289z M461.338,260.426h4.788l1.193-0.002l1.168-0.007
		l1.142-0.011l1.116-0.015l1.091-0.02l1.065-0.023l1.04-0.028l1.014-0.032l0.989-0.037l0.963-0.04l0.937-0.045l0.912-0.049
		l0.885-0.053l0.861-0.057l0.835-0.061l0.81-0.066l0.784-0.071l0.758-0.075l0.732-0.079l0.707-0.083l0.681-0.087l0.656-0.091
		l0.63-0.095l0.605-0.099l0.579-0.104l0.554-0.108l0.527-0.112l0.502-0.116l0.477-0.121l0.451-0.125l0.425-0.129l0.4-0.133
		l0.381-0.139l0.369-0.145l0.357-0.151l0.345-0.157l0.333-0.164l0.321-0.17l0.309-0.176l0.297-0.182l0.284-0.189l0.273-0.195
		l0.26-0.201l0.249-0.207l0.236-0.214l0.225-0.22l0.212-0.226l0.201-0.232l0.188-0.239l0.176-0.245l0.164-0.251l0.152-0.258
		l0.14-0.264l0.128-0.27l0.115-0.276l0.104-0.283l0.091-0.289l0.08-0.295l0.067-0.302l0.055-0.308l0.043-0.314l0.031-0.32
		l0.018-0.327l0.006-0.333l-0.007-0.35l-0.019-0.343l-0.033-0.337l-0.045-0.33l-0.059-0.325l-0.071-0.318l-0.085-0.311l-0.097-0.304
		l-0.111-0.299l-0.123-0.292l-0.137-0.286l-0.149-0.279l-0.163-0.274l-0.175-0.266l-0.189-0.261l-0.201-0.253l-0.215-0.248
		l-0.228-0.241l-0.241-0.235l-0.253-0.228l-0.267-0.222l-0.279-0.216l-0.293-0.209l-0.305-0.202l-0.319-0.197l-0.332-0.19
		l-0.345-0.184l-0.357-0.177l-0.371-0.172l-0.383-0.164l-0.397-0.158l-0.409-0.151l-0.428-0.147l-0.451-0.142l-0.474-0.137
		l-0.496-0.132l-0.519-0.128l-0.542-0.123l-0.565-0.118l-0.588-0.113l-0.611-0.109l-0.634-0.104l-0.657-0.1l-0.679-0.094
		l-0.703-0.09l-0.726-0.085l-0.748-0.081l-0.771-0.076l-0.795-0.072l-0.817-0.067l-0.84-0.063l-0.862-0.057l-0.886-0.053
		l-0.908-0.048l-0.931-0.044l-0.954-0.039l-0.977-0.035l-1-0.03l-1.022-0.025l-1.045-0.021l-1.068-0.016l-1.09-0.011l-1.113-0.007
		l-1.136-0.002h-4.788V260.426z"/>
	<path fill-rule="evenodd" clip-rule="evenodd" d="M345.877,262.351h4.58l0.805-0.003l0.792-0.008l0.778-0.014l0.764-0.019
		l0.75-0.025l0.736-0.03l0.722-0.035l0.708-0.04l0.694-0.047l0.68-0.051l0.666-0.057l0.652-0.062l0.638-0.068l0.624-0.073
		l0.61-0.078l0.596-0.083l0.582-0.09l0.568-0.094l0.554-0.1l0.541-0.105l0.527-0.111l0.513-0.116l0.499-0.122l0.485-0.126
		l0.471-0.132l0.457-0.138l0.443-0.143l0.43-0.148l0.416-0.154l0.402-0.159l0.388-0.164l0.375-0.169l0.361-0.177l0.35-0.184
		l0.339-0.19l0.327-0.196l0.316-0.203l0.305-0.21l0.293-0.216l0.282-0.222l0.271-0.229l0.259-0.235l0.247-0.242l0.236-0.248
		l0.225-0.255l0.213-0.261l0.202-0.268l0.19-0.274l0.178-0.281l0.168-0.287l0.156-0.293l0.144-0.3l0.133-0.307l0.121-0.313
		l0.11-0.32l0.098-0.325l0.087-0.333l0.075-0.339l0.064-0.346l0.052-0.352l0.04-0.359l0.029-0.365l0.017-0.371l0.006-0.378
		l-0.006-0.35l-0.017-0.344l-0.029-0.338l-0.04-0.331l-0.052-0.325l-0.064-0.32l-0.075-0.313l-0.087-0.308l-0.098-0.302l-0.11-0.296
		l-0.121-0.289l-0.133-0.284l-0.145-0.277l-0.155-0.271l-0.168-0.266l-0.178-0.259l-0.191-0.254l-0.202-0.247l-0.213-0.242
		l-0.225-0.236l-0.236-0.23l-0.247-0.224l-0.259-0.218l-0.27-0.212l-0.282-0.207l-0.293-0.2l-0.305-0.195l-0.316-0.188l-0.327-0.183
		l-0.339-0.177l-0.35-0.171l-0.362-0.165l-0.375-0.16l-0.388-0.154l-0.402-0.15l-0.416-0.144l-0.43-0.14l-0.443-0.134l-0.457-0.13
		l-0.471-0.123l-0.485-0.119l-0.499-0.114l-0.513-0.109l-0.527-0.103l-0.541-0.099l-0.554-0.093l-0.568-0.088l-0.582-0.083
		l-0.596-0.079l-0.61-0.073l-0.624-0.068l-0.638-0.063l-0.652-0.058l-0.666-0.053l-0.68-0.048l-0.694-0.042l-0.708-0.038
		l-0.722-0.033l-0.736-0.027l-0.75-0.023l-0.764-0.018l-0.778-0.012l-0.792-0.008l-0.805-0.002h-4.58V262.351L345.877,262.351z
		 M313.879,304.289v-76.448h36.577l1.812,0.005l1.782,0.017l1.753,0.028l1.723,0.039l1.693,0.05l1.663,0.062l1.634,0.073
		l1.604,0.084l1.574,0.095l1.545,0.106l1.514,0.117l1.485,0.129l1.455,0.139l1.425,0.151l1.395,0.163l1.366,0.174l1.335,0.184
		l1.306,0.196l1.276,0.207l1.246,0.219l1.216,0.23l1.186,0.241l1.156,0.252l1.126,0.264l1.096,0.274l1.066,0.286l1.036,0.297
		l1.007,0.309l0.976,0.32l0.946,0.331l0.916,0.342l0.887,0.354l0.86,0.365l0.833,0.378l0.806,0.39l0.779,0.402l0.751,0.414
		l0.724,0.427l0.696,0.438l0.669,0.451l0.641,0.463l0.615,0.475l0.586,0.488l0.56,0.5l0.532,0.512l0.505,0.525l0.477,0.536
		l0.45,0.549l0.422,0.56l0.395,0.573l0.368,0.585l0.341,0.597l0.313,0.61l0.287,0.622l0.259,0.634l0.232,0.646l0.204,0.658
		l0.177,0.671l0.15,0.683l0.123,0.696l0.095,0.707l0.069,0.72l0.04,0.732l0.014,0.744l-0.014,0.69l-0.041,0.681l-0.069,0.671
		l-0.096,0.663l-0.124,0.653l-0.151,0.643l-0.178,0.634l-0.206,0.625l-0.233,0.615l-0.261,0.606l-0.289,0.596l-0.315,0.588
		l-0.344,0.577l-0.371,0.569l-0.398,0.559l-0.426,0.55l-0.454,0.54l-0.48,0.531l-0.509,0.522l-0.536,0.512l-0.563,0.503
		l-0.591,0.494l-0.619,0.484l-0.646,0.476l-0.674,0.465l-0.702,0.457l-0.729,0.447l-0.756,0.438l-0.785,0.428l-0.811,0.419
		l-0.84,0.41l-0.867,0.401l-0.888,0.388l-0.91,0.376l-0.931,0.363l-0.952,0.352l-0.974,0.339l-0.995,0.326l-1.016,0.314
		l-1.037,0.302l-1.058,0.289l-1.08,0.277l-1.101,0.265l-1.122,0.253l-1.143,0.24l-1.164,0.228l-1.186,0.215l-1.206,0.204
		l-1.228,0.191l-1.249,0.179l-1.27,0.166l-1.291,0.155l-1.313,0.141l-1.333,0.13l-1.354,0.117l-1.375,0.105l-1.397,0.092
		l-1.418,0.08l-1.439,0.068l-1.459,0.056l-1.481,0.043l-1.501,0.031l-1.522,0.018l-1.543,0.007h-8.741v29.198H313.879z"/>
	<polygon fill-rule="evenodd" clip-rule="evenodd" points="205.075,304.289 205.075,227.841 288.077,227.841 288.077,238.389 
		229.236,238.389 229.236,257.45 288.077,257.45 288.077,268.353 229.236,268.353 229.236,304.289 	"/>
	<polygon fill-rule="evenodd" clip-rule="evenodd" points="58.026,227.841 81.876,227.841 81.876,274.256 81.885,274.898 
		81.912,275.529 81.958,276.151 82.021,276.762 82.102,277.363 82.202,277.954 82.32,278.536 82.455,279.107 82.61,279.668 
		82.781,280.218 82.972,280.759 83.18,281.29 83.407,281.811 83.651,282.321 83.915,282.822 84.195,283.313 84.495,283.793 
		84.812,284.263 85.148,284.724 85.501,285.175 85.874,285.615 86.264,286.046 86.672,286.466 87.099,286.877 87.544,287.277 
		88.007,287.667 88.489,288.048 88.989,288.419 89.507,288.78 90.043,289.13 90.598,289.471 91.17,289.802 91.761,290.121 
		92.37,290.43 92.997,290.729 93.641,291.018 94.303,291.296 94.983,291.565 95.682,291.823 96.397,292.072 97.131,292.31 
		97.883,292.537 98.653,292.755 99.44,292.963 100.245,293.161 101.069,293.348 101.91,293.526 102.769,293.693 103.646,293.85 
		104.541,293.997 105.453,294.133 106.384,294.26 107.332,294.376 108.299,294.483 109.282,294.579 110.284,294.666 
		111.304,294.742 112.342,294.807 113.398,294.863 114.471,294.909 115.563,294.944 116.672,294.97 117.799,294.985 118.944,294.99 
		120.086,294.985 121.21,294.97 122.316,294.944 123.404,294.909 124.475,294.863 125.527,294.807 126.562,294.742 127.579,294.666 
		128.578,294.579 129.559,294.483 130.523,294.376 131.468,294.26 132.396,294.133 133.306,293.997 134.198,293.85 135.072,293.693 
		135.929,293.526 136.768,293.348 137.589,293.161 138.392,292.963 139.178,292.755 139.946,292.537 140.696,292.31 
		141.428,292.072 142.143,291.823 142.84,291.565 143.52,291.296 144.181,291.018 144.825,290.729 145.451,290.43 146.059,290.121 
		146.649,289.802 147.222,289.471 147.777,289.13 148.313,288.78 148.831,288.419 149.331,288.048 149.812,287.667 150.276,287.277 
		150.721,286.877 151.148,286.466 151.556,286.046 151.946,285.615 152.318,285.175 152.672,284.724 153.008,284.263 
		153.325,283.793 153.624,283.313 153.905,282.822 154.169,282.321 154.413,281.811 154.64,281.29 154.848,280.759 155.038,280.218 
		155.21,279.668 155.364,279.107 155.5,278.536 155.618,277.954 155.718,277.363 155.799,276.762 155.862,276.151 155.908,275.529 
		155.934,274.898 155.943,274.256 155.943,227.841 180.105,227.841 180.105,275.415 180.09,276.376 180.046,277.322 
		179.972,278.253 179.868,279.169 179.734,280.07 179.571,280.955 179.378,281.825 179.155,282.68 178.903,283.519 178.621,284.343 
		178.309,285.152 177.968,285.946 177.596,286.725 177.196,287.488 176.765,288.236 176.304,288.969 175.814,289.687 
		175.294,290.389 174.745,291.076 174.165,291.748 173.556,292.405 172.917,293.046 172.248,293.672 171.549,294.283 
		170.821,294.878 170.062,295.459 169.274,296.023 168.456,296.574 167.608,297.108 166.73,297.628 165.823,298.132 
		164.885,298.621 163.918,299.095 162.92,299.553 161.892,299.997 160.833,300.425 159.746,300.839 158.626,301.238 
		157.478,301.621 156.298,301.99 155.089,302.343 153.85,302.681 152.581,303.004 151.281,303.313 149.951,303.606 148.591,303.885 
		147.201,304.148 145.781,304.396 144.331,304.629 142.851,304.847 141.34,305.05 139.8,305.238 138.23,305.411 136.63,305.569 
		134.999,305.712 133.339,305.84 131.649,305.952 129.928,306.05 128.178,306.133 126.398,306.201 124.588,306.253 122.748,306.291 
		120.878,306.314 118.979,306.321 117.076,306.314 115.204,306.291 113.361,306.253 111.549,306.201 109.769,306.133 
		108.017,306.051 106.296,305.953 104.605,305.84 102.945,305.712 101.315,305.569 99.716,305.411 98.146,305.239 96.608,305.051 
		95.099,304.849 93.621,304.631 92.173,304.398 90.755,304.15 89.368,303.888 88.012,303.61 86.685,303.317 85.389,303.009 
		84.124,302.687 82.889,302.35 81.684,301.997 80.51,301.63 79.366,301.247 78.252,300.849 77.17,300.438 76.117,300.01 
		75.095,299.568 74.104,299.111 73.142,298.639 72.212,298.152 71.31,297.649 70.439,297.131 69.596,296.598 68.784,296.048 
		68.001,295.485 67.248,294.905 66.524,294.311 65.831,293.7 65.166,293.075 64.532,292.434 63.926,291.777 63.351,291.106 
		62.804,290.419 62.288,289.716 61.801,288.998 61.344,288.265 60.916,287.516 60.518,286.752 60.15,285.972 59.81,285.178 
		59.501,284.367 59.221,283.541 58.97,282.7 58.749,281.843 58.557,280.971 58.395,280.083 58.263,279.181 58.159,278.262 
		58.086,277.328 58.041,276.379 58.026,275.415 	"/>
</g>
<rect x="57.786" y="317.324" fill-rule="evenodd" clip-rule="evenodd" fill="#143A68" width="479.637" height="4.112"/>
<path fill-rule="evenodd" clip-rule="evenodd" d="M57.907,330.966h3.17v9.524c0,1.416,0.41,2.476,1.235,3.189
	c0.825,0.71,2.055,1.064,3.691,1.064c1.632,0,2.857-0.355,3.682-1.064c0.825-0.713,1.235-1.774,1.235-3.189v-9.524h3.213v9.762
	c0,2.121-0.673,3.709-2.023,4.762c-1.35,1.053-3.387,1.58-6.102,1.58c-2.719,0-4.751-0.527-6.093-1.576
	c-1.341-1.05-2.009-2.637-2.009-4.766V330.966L57.907,330.966z M78.562,346.652v-16.308l12.554,9.59
	c0.346,0.271,0.691,0.56,1.041,0.867c0.35,0.307,0.719,0.655,1.106,1.042v-10.877h2.972v16.297l-12.811-9.761
	c-0.342-0.264-0.673-0.541-0.991-0.834c-0.323-0.296-0.626-0.6-0.912-0.921v10.906H78.562L78.562,346.652z M100.825,346.652v-15.687
	h3.212v15.687H100.825L100.825,346.652z M114.932,347.263l-8.816-16.297h3.336l4.429,8.357c0.258,0.486,0.475,0.932,0.645,1.346
	c0.171,0.41,0.309,0.801,0.406,1.174c0.12-0.395,0.267-0.801,0.447-1.221c0.18-0.424,0.392-0.856,0.636-1.298l4.41-8.357h3.323
	L114.932,347.263L114.932,347.263z M125.748,346.652v-15.687h11.033v2.165h-7.82v3.932h7.82v2.238h-7.82v5.069h7.82v2.282H125.748
	L125.748,346.652z M143.675,337.652h0.581c1.7,0,2.829-0.157,3.387-0.472c0.558-0.315,0.839-0.871,0.839-1.672
	c0-0.863-0.3-1.47-0.899-1.825c-0.599-0.355-1.71-0.53-3.327-0.53h-0.581V337.652L143.675,337.652z M143.472,339.634v7.018h-3.01
	v-15.687h4.48c1.313,0,2.336,0.07,3.06,0.205c0.723,0.135,1.341,0.358,1.857,0.673c0.613,0.38,1.083,0.871,1.419,1.47
	c0.332,0.6,0.498,1.254,0.498,1.971c0,1.255-0.382,2.238-1.147,2.952c-0.765,0.71-1.899,1.137-3.392,1.28l6.807,7.136h-3.632
	l-6.576-7.018H143.472L143.472,339.634z M154.814,343.511l2.562-0.94c0.244,0.699,0.692,1.233,1.337,1.598
	c0.65,0.369,1.479,0.552,2.484,0.552c0.954,0,1.714-0.212,2.277-0.633c0.562-0.421,0.844-0.984,0.844-1.69
	c0-0.922-0.963-1.744-2.89-2.465c-0.272-0.106-0.475-0.186-0.622-0.234c-2.175-0.845-3.627-1.606-4.35-2.29
	c-0.724-0.681-1.088-1.518-1.088-2.502c0-1.28,0.548-2.315,1.641-3.109c1.092-0.793,2.525-1.189,4.3-1.189
	c1.456,0,2.678,0.223,3.659,0.669c0.981,0.446,1.659,1.09,2.037,1.924l-2.512,1.028c-0.396-0.494-0.83-0.852-1.304-1.079
	c-0.47-0.23-1.014-0.344-1.627-0.344c-0.862,0-1.549,0.179-2.056,0.534c-0.511,0.359-0.765,0.838-0.765,1.437
	c0,0.944,1.115,1.821,3.35,2.633c0.17,0.066,0.304,0.117,0.401,0.15c1.954,0.717,3.295,1.415,4.027,2.095
	c0.729,0.684,1.092,1.536,1.092,2.557c0,1.485-0.59,2.666-1.77,3.54c-1.18,0.874-2.77,1.313-4.779,1.313
	c-1.682,0-3.06-0.307-4.138-0.922C155.85,345.533,155.145,344.656,154.814,343.511L154.814,343.511z M171.178,346.652v-15.687h3.212
	v15.687H171.178L171.178,346.652z M182.219,344.349h2.701c1.484,0,2.599-0.077,3.341-0.234c0.742-0.157,1.387-0.424,1.94-0.794
	c0.747-0.508,1.304-1.137,1.677-1.891c0.373-0.754,0.562-1.631,0.562-2.633c0-0.998-0.189-1.876-0.562-2.63
	c-0.373-0.753-0.931-1.382-1.677-1.89c-0.558-0.37-1.23-0.637-2.005-0.794c-0.779-0.157-2-0.234-3.654-0.234h-1.161h-1.162V344.349
	L182.219,344.349z M179.008,346.652v-15.687h4.332c2.821,0,4.802,0.113,5.95,0.337c1.148,0.227,2.152,0.603,3.018,1.13
	c1.143,0.695,2.01,1.583,2.6,2.67c0.59,1.086,0.884,2.326,0.884,3.716c0,1.393-0.295,2.63-0.884,3.705
	c-0.59,1.075-1.457,1.96-2.6,2.663c-0.866,0.527-1.848,0.903-2.949,1.13c-1.106,0.223-2.82,0.336-5.152,0.336h-0.867H179.008
	L179.008,346.652z M203.16,340.49h5.507l-2.023-3.577c-0.116-0.23-0.24-0.494-0.364-0.79c-0.124-0.296-0.254-0.625-0.378-0.991
	c-0.11,0.344-0.221,0.666-0.345,0.962c-0.12,0.296-0.244,0.567-0.368,0.819L203.16,340.49L203.16,340.49z M212.046,346.652
	l-2.244-4.041h-7.826l-2.295,4.041h-3.378l9.572-16.308l9.558,16.308H212.046L212.046,346.652z M220.511,344.349h2.701
	c1.484,0,2.599-0.077,3.341-0.234c0.742-0.157,1.387-0.424,1.94-0.794c0.747-0.508,1.304-1.137,1.677-1.891
	c0.373-0.754,0.562-1.631,0.562-2.633c0-0.998-0.189-1.876-0.562-2.63c-0.373-0.753-0.931-1.382-1.677-1.89
	c-0.558-0.37-1.23-0.637-2.005-0.794c-0.778-0.157-2-0.234-3.654-0.234h-1.161h-1.161V344.349L220.511,344.349z M217.299,346.652
	v-15.687h4.332c2.82,0,4.802,0.113,5.949,0.337c1.148,0.227,2.152,0.603,3.019,1.13c1.143,0.695,2.01,1.583,2.6,2.67
	c0.59,1.086,0.884,2.326,0.884,3.716c0,1.393-0.295,2.63-0.884,3.705c-0.59,1.075-1.457,1.96-2.6,2.663
	c-0.866,0.527-1.848,0.903-2.949,1.13c-1.106,0.223-2.821,0.336-5.152,0.336h-0.867H217.299L217.299,346.652z M237.765,346.652
	v-15.687h11.033v2.165h-7.82v3.932h7.82v2.238h-7.82v5.069h7.82v2.282H237.765L237.765,346.652z M260.826,346.652v-15.687h11.033
	v2.165h-7.821v3.91h7.821v2.238h-7.821v7.373H260.826L260.826,346.652z M275.338,346.652v-15.687h11.033v2.165h-7.821v3.932h7.821
	v2.238h-7.821v5.069h7.821v2.282H275.338L275.338,346.652z M293.265,344.349h2.701c1.484,0,2.599-0.077,3.341-0.234
	c0.742-0.157,1.387-0.424,1.94-0.794c0.746-0.508,1.304-1.137,1.677-1.891c0.373-0.754,0.562-1.631,0.562-2.633
	c0-0.998-0.189-1.876-0.562-2.63c-0.373-0.753-0.931-1.382-1.677-1.89c-0.558-0.37-1.23-0.637-2.005-0.794
	c-0.779-0.157-2-0.234-3.655-0.234h-1.161h-1.162V344.349L293.265,344.349z M290.053,346.652v-15.687h4.332
	c2.82,0,4.802,0.113,5.949,0.337c1.148,0.227,2.153,0.603,3.019,1.13c1.143,0.695,2.009,1.583,2.599,2.67
	c0.59,1.086,0.885,2.326,0.885,3.716c0,1.393-0.295,2.63-0.885,3.705c-0.59,1.075-1.457,1.96-2.599,2.663
	c-0.866,0.527-1.848,0.903-2.949,1.13c-1.106,0.223-2.82,0.336-5.152,0.336h-0.867H290.053L290.053,346.652z M310.519,346.652
	v-15.687h11.033v2.165h-7.82v3.932h7.82v2.238h-7.82v5.069h7.82v2.282H310.519L310.519,346.652z M328.446,337.652h0.581
	c1.7,0,2.829-0.157,3.387-0.472c0.557-0.315,0.839-0.871,0.839-1.672c0-0.863-0.3-1.47-0.899-1.825
	c-0.599-0.355-1.71-0.53-3.327-0.53h-0.581V337.652L328.446,337.652z M328.244,339.634v7.018h-3.01v-15.687h4.48
	c1.314,0,2.337,0.07,3.06,0.205c0.724,0.135,1.341,0.358,1.857,0.673c0.613,0.38,1.083,0.871,1.419,1.47
	c0.332,0.6,0.497,1.254,0.497,1.971c0,1.255-0.382,2.238-1.147,2.952c-0.765,0.71-1.899,1.137-3.392,1.28l6.807,7.136h-3.632
	l-6.576-7.018H328.244L328.244,339.634z M344.889,340.49h5.507l-2.023-3.577c-0.116-0.23-0.24-0.494-0.364-0.79
	c-0.124-0.296-0.254-0.625-0.378-0.991c-0.11,0.344-0.221,0.666-0.345,0.962c-0.12,0.296-0.244,0.567-0.368,0.819L344.889,340.49
	L344.889,340.49z M353.775,346.652h3.387l-9.558-16.308l-9.572,16.308h3.378l2.295-4.041h7.825L353.775,346.652L353.775,346.652z
	 M359.028,346.652v-15.687h3.212v13.404h7.185v2.282H359.028L359.028,346.652z M383.587,344.349h2.7
	c1.484,0,2.599-0.077,3.342-0.234c0.742-0.157,1.387-0.424,1.94-0.794c0.747-0.508,1.304-1.137,1.677-1.891
	c0.373-0.754,0.562-1.631,0.562-2.633c0-0.998-0.189-1.876-0.562-2.63c-0.373-0.753-0.931-1.382-1.677-1.89
	c-0.557-0.37-1.23-0.637-2.004-0.794c-0.779-0.157-2-0.234-3.655-0.234h-1.161h-1.162V344.349L383.587,344.349z M380.375,346.652
	v-15.687h4.332c2.82,0,4.802,0.113,5.949,0.337c1.148,0.227,2.152,0.603,3.018,1.13c1.143,0.695,2.01,1.583,2.6,2.67
	c0.59,1.086,0.885,2.326,0.885,3.716c0,1.393-0.295,2.63-0.885,3.705c-0.59,1.075-1.457,1.96-2.6,2.663
	c-0.866,0.527-1.848,0.903-2.949,1.13c-1.106,0.223-2.82,0.336-5.152,0.336h-0.866H380.375L380.375,346.652z M417.758,338.84
	c0-0.79-0.184-1.543-0.548-2.26c-0.364-0.713-0.885-1.35-1.572-1.905c-0.664-0.552-1.438-0.973-2.313-1.269
	c-0.88-0.296-1.802-0.446-2.775-0.446c-0.972,0-1.899,0.147-2.774,0.439c-0.876,0.292-1.659,0.717-2.341,1.276
	c-0.682,0.548-1.207,1.181-1.567,1.894c-0.359,0.717-0.539,1.474-0.539,2.271c0,0.794,0.18,1.544,0.539,2.253
	c0.36,0.706,0.885,1.339,1.567,1.895c0.682,0.559,1.461,0.984,2.337,1.276c0.871,0.293,1.797,0.439,2.779,0.439
	c0.963,0,1.88-0.146,2.747-0.439c0.866-0.292,1.65-0.717,2.341-1.276c0.687-0.556,1.207-1.189,1.572-1.902
	C417.574,340.376,417.758,339.627,417.758,338.84L417.758,338.84z M421.109,338.84c0,1.116-0.263,2.169-0.788,3.16
	c-0.53,0.995-1.295,1.88-2.304,2.659c-1.018,0.779-2.166,1.375-3.443,1.789c-1.276,0.413-2.618,0.622-4.023,0.622
	c-1.424,0-2.779-0.209-4.069-0.625c-1.295-0.421-2.433-1.013-3.424-1.785c-1.01-0.779-1.774-1.66-2.295-2.648
	c-0.521-0.984-0.783-2.041-0.783-3.171c0-1.123,0.263-2.18,0.783-3.171c0.521-0.995,1.286-1.884,2.295-2.67
	c1.009-0.779,2.152-1.371,3.428-1.777c1.277-0.406,2.631-0.611,4.065-0.611c1.424,0,2.77,0.205,4.042,0.611
	c1.277,0.406,2.415,0.998,3.424,1.777c1.009,0.794,1.774,1.69,2.304,2.685C420.846,336.682,421.109,337.732,421.109,338.84
	L421.109,338.84z M436.349,337.524h0.825c1.783,0,2.972-0.154,3.567-0.461c0.594-0.307,0.89-0.849,0.89-1.627
	c0-0.838-0.318-1.426-0.954-1.767c-0.632-0.344-1.802-0.516-3.502-0.516h-0.825V337.524L436.349,337.524z M436.146,339.612v7.041
	h-3.009v-15.687h4.862c1.437,0,2.498,0.062,3.18,0.186c0.677,0.124,1.272,0.333,1.775,0.618c0.622,0.362,1.111,0.855,1.461,1.47
	c0.35,0.618,0.526,1.298,0.526,2.044c0,0.742-0.175,1.426-0.526,2.055c-0.35,0.629-0.839,1.123-1.461,1.478
	c-0.502,0.285-1.097,0.49-1.775,0.611c-0.682,0.12-1.742,0.182-3.18,0.182h-0.636H436.146L436.146,339.612z M450.511,340.49h5.507
	l-2.023-3.577c-0.115-0.23-0.24-0.494-0.364-0.79c-0.125-0.296-0.254-0.625-0.378-0.991c-0.111,0.344-0.221,0.666-0.345,0.962
	c-0.12,0.296-0.244,0.567-0.368,0.819L450.511,340.49L450.511,340.49z M459.396,346.652h3.387l-9.558-16.308l-9.572,16.308h3.378
	l2.295-4.041h7.825L459.396,346.652L459.396,346.652z M467.862,337.652h0.581c1.7,0,2.829-0.157,3.387-0.472
	c0.558-0.315,0.839-0.871,0.839-1.672c0-0.863-0.3-1.47-0.899-1.825c-0.599-0.355-1.71-0.53-3.327-0.53h-0.581V337.652
	L467.862,337.652z M467.659,339.634v7.018h-3.01v-15.687h4.48c1.314,0,2.336,0.07,3.06,0.205c0.723,0.135,1.341,0.358,1.857,0.673
	c0.613,0.38,1.083,0.871,1.419,1.47c0.332,0.6,0.498,1.254,0.498,1.971c0,1.255-0.382,2.238-1.147,2.952
	c-0.766,0.71-1.899,1.137-3.392,1.28l6.807,7.136h-3.632l-6.576-7.018H467.659L467.659,339.634z M484.305,340.49h5.507l-2.023-3.577
	c-0.115-0.23-0.24-0.494-0.364-0.79c-0.124-0.296-0.253-0.625-0.378-0.991c-0.111,0.344-0.221,0.666-0.345,0.962
	c-0.12,0.296-0.244,0.567-0.368,0.819L484.305,340.49L484.305,340.49z M493.19,346.652h3.387l-9.558-16.308l-9.572,16.308h3.378
	l2.295-4.041h7.826L493.19,346.652L493.19,346.652z M498.443,346.652v-16.308l12.553,9.59c0.346,0.271,0.691,0.56,1.042,0.867
	c0.35,0.307,0.719,0.655,1.106,1.042v-10.877h2.972v16.297l-12.811-9.761c-0.341-0.264-0.673-0.541-0.991-0.834
	c-0.323-0.296-0.627-0.6-0.913-0.921v10.906H498.443L498.443,346.652z M524.823,340.49h5.507l-2.023-3.577
	c-0.115-0.23-0.24-0.494-0.364-0.79c-0.124-0.296-0.253-0.625-0.378-0.991c-0.111,0.344-0.222,0.666-0.346,0.962
	c-0.12,0.296-0.244,0.567-0.368,0.819L524.823,340.49L524.823,340.49z M533.708,346.652l-2.244-4.041h-7.826l-2.295,4.041h-3.378
	l9.572-16.308l9.558,16.308H533.708L533.708,346.652z M525.633,329.423l2.567-2.915h3.037l-3.945,2.915H525.633z"/>
<rect x="70.349" y="88.58" fill-rule="evenodd" clip-rule="evenodd" fill="#143A68" width="12.317" height="2.215"/>
<rect x="512.299" y="88.58" fill-rule="evenodd" clip-rule="evenodd" fill="#143A68" width="12.318" height="2.215"/>
<rect x="70.349" y="154.602" fill-rule="evenodd" clip-rule="evenodd" fill="#143A68" width="12.317" height="2.215"/>
<rect x="512.299" y="154.602" fill-rule="evenodd" clip-rule="evenodd" fill="#143A68" width="12.318" height="2.215"/>
<rect x="91.531" y="88.58" fill-rule="evenodd" clip-rule="evenodd" fill="#143A68" width="12.321" height="2.215"/>
<rect x="491.11" y="88.58" fill-rule="evenodd" clip-rule="evenodd" fill="#143A68" width="12.32" height="2.215"/>
<rect x="91.531" y="154.602" fill-rule="evenodd" clip-rule="evenodd" fill="#143A68" width="12.321" height="2.215"/>
<rect x="491.11" y="154.602" fill-rule="evenodd" clip-rule="evenodd" fill="#143A68" width="12.32" height="2.215"/>
<rect x="112.72" y="88.58" fill-rule="evenodd" clip-rule="evenodd" fill="#143A68" width="12.318" height="2.215"/>
<rect x="469.929" y="88.58" fill-rule="evenodd" clip-rule="evenodd" fill="#143A68" width="12.316" height="2.215"/>
<rect x="112.72" y="154.602" fill-rule="evenodd" clip-rule="evenodd" fill="#143A68" width="12.318" height="2.215"/>
<rect x="469.929" y="154.602" fill-rule="evenodd" clip-rule="evenodd" fill="#143A68" width="12.316" height="2.215"/>
<rect x="133.908" y="88.58" fill-rule="evenodd" clip-rule="evenodd" fill="#143A68" width="12.316" height="2.215"/>
<rect x="448.741" y="88.58" fill-rule="evenodd" clip-rule="evenodd" fill="#143A68" width="12.316" height="2.215"/>
<rect x="133.908" y="154.602" fill-rule="evenodd" clip-rule="evenodd" fill="#143A68" width="12.316" height="2.215"/>
<rect x="448.741" y="154.602" fill-rule="evenodd" clip-rule="evenodd" fill="#143A68" width="12.316" height="2.215"/>
<rect x="155.092" y="88.58" fill-rule="evenodd" clip-rule="evenodd" fill="#143A68" width="12.563" height="2.215"/>
<rect x="427.309" y="88.58" fill-rule="evenodd" clip-rule="evenodd" fill="#143A68" width="12.561" height="2.215"/>
<rect x="155.092" y="154.602" fill-rule="evenodd" clip-rule="evenodd" fill="#143A68" width="12.563" height="2.215"/>
<rect x="427.309" y="154.602" fill-rule="evenodd" clip-rule="evenodd" fill="#143A68" width="12.561" height="2.215"/>
<rect x="176.278" y="88.58" fill-rule="evenodd" clip-rule="evenodd" fill="#143A68" width="12.318" height="2.215"/>
<rect x="406.369" y="88.58" fill-rule="evenodd" clip-rule="evenodd" fill="#143A68" width="12.317" height="2.215"/>
<rect x="176.278" y="154.602" fill-rule="evenodd" clip-rule="evenodd" fill="#143A68" width="12.318" height="2.215"/>
<rect x="406.369" y="154.602" fill-rule="evenodd" clip-rule="evenodd" fill="#143A68" width="12.317" height="2.215"/>
<rect x="303.676" y="88.825" fill-rule="evenodd" clip-rule="evenodd" fill="#143A68" width="13.547" height="2.218"/>
<rect x="306.141" y="92.029" fill-rule="evenodd" clip-rule="evenodd" fill="#143A68" width="8.866" height="1.723"/>
<g>
	<rect x="216.679" y="69.119" fill-rule="evenodd" clip-rule="evenodd" fill="#143A68" width="161.853" height="2.463"/>
	<path fill-rule="evenodd" clip-rule="evenodd" fill="#143A68" d="M401.177,85.601v-8.624l-26.297,0.022v8.615L401.177,85.601
		L401.177,85.601z M393.787,74.515l44.608-15.743h-70.213l15.026,5.174v2.462H212v-2.462l15.028-5.174h-19.954H175.54h-18.967
		l18.967,6.649l25.865,9.118L393.787,74.515L393.787,74.515z M400.68,74.515l64.816-22.641l64.784,22.664L400.68,74.515
		L400.68,74.515z M403.641,76.977v8.624l61.854,0.021h62.075v-8.623L403.641,76.977L403.641,76.977z M297.729,88.077v0.012H175.54
		l0,0H57.786v-2.466h7.39v-8.623h-7.39v-2.461l45.081-15.766H57.786v-2.219h51.487l20.201-7.144l0,0h0.243l20.202,7.144h25.621l0,0
		h31.534l0,0h26.605l64.051-22.663l0,0h0.246l63.802,22.663h57.896l0,0h25.37l20.453-7.389l20.195,7.389h51.49v2.219h-44.836
		l44.836,15.766v2.461h-7.139v8.623h7.382v2.466h-71.927l0,0L297.729,88.077L297.729,88.077z M297.525,85.622v-0.008h75.133v-8.615
		H222.595v8.623H297.525L297.525,85.622z M376.314,63.946H218.898l78.831-27.347l0.246-0.248L376.314,63.946L376.314,63.946z
		 M297.729,88.089L297.729,88.089L297.729,88.089z M220.376,85.622v-8.623h-26.361v8.623H220.376L220.376,85.622z M175.54,85.622
		h16.014v-8.623H175.54H67.391v8.623H175.54L175.54,85.622z M175.54,74.538L175.54,74.538H64.435l65.039-22.664h0.243l45.823,16.01
		l18.97,6.654H175.54L175.54,74.538z M57.786,56.553"/>
</g>
<rect x="226.898" y="88.821" fill-rule="evenodd" clip-rule="evenodd" fill="#143A68" width="13.548" height="2.217"/>
<rect x="229.116" y="92.024" fill-rule="evenodd" clip-rule="evenodd" fill="#143A68" width="9.116" height="1.724"/>
<rect x="303.602" y="88.821" fill-rule="evenodd" clip-rule="evenodd" fill="#143A68" width="13.551" height="2.217"/>
<rect x="305.821" y="92.024" fill-rule="evenodd" clip-rule="evenodd" fill="#143A68" width="9.116" height="1.724"/>
<rect x="329.415" y="88.821" fill-rule="evenodd" clip-rule="evenodd" fill="#143A68" width="13.55" height="2.217"/>
<rect x="331.634" y="92.024" fill-rule="evenodd" clip-rule="evenodd" fill="#143A68" width="9.113" height="1.724"/>
<rect x="278.159" y="89.008" fill-rule="evenodd" clip-rule="evenodd" fill="#143A68" width="13.3" height="2.217"/>
<rect x="280.371" y="92.211" fill-rule="evenodd" clip-rule="evenodd" fill="#143A68" width="8.868" height="1.724"/>
<rect x="252.515" y="88.901" fill-rule="evenodd" clip-rule="evenodd" fill="#143A68" width="13.301" height="2.216"/>
<rect x="254.729" y="92.102" fill-rule="evenodd" clip-rule="evenodd" fill="#143A68" width="8.867" height="1.724"/>
<rect x="355.005" y="88.821" fill-rule="evenodd" clip-rule="evenodd" fill="#143A68" width="13.3" height="2.217"/>
<rect x="357.222" y="92.024" fill-rule="evenodd" clip-rule="evenodd" fill="#143A68" width="8.867" height="1.724"/>
<rect x="225.08" y="177.751" fill-rule="evenodd" clip-rule="evenodd" fill="#143A68" width="17.242" height="2.22"/>
<rect x="301.783" y="177.751" fill-rule="evenodd" clip-rule="evenodd" fill="#143A68" width="17.241" height="2.22"/>
<rect x="327.595" y="177.751" fill-rule="evenodd" clip-rule="evenodd" fill="#143A68" width="17.242" height="2.22"/>
<rect x="276.185" y="177.939" fill-rule="evenodd" clip-rule="evenodd" fill="#143A68" width="17.245" height="2.219"/>
<rect x="250.54" y="177.832" fill-rule="evenodd" clip-rule="evenodd" fill="#143A68" width="17.247" height="2.218"/>
<rect x="353.031" y="177.752" fill-rule="evenodd" clip-rule="evenodd" fill="#143A68" width="17.244" height="2.219"/>
<g>
	<path fill-rule="evenodd" clip-rule="evenodd" fill="#143A68" d="M386.17,191.062v5.175H209.045v-5.175H386.17L386.17,191.062z
		 M229.584,96.372v25.218h-42.218V91.536h-9.61v30.054h-11.577V91.536h-9.606v30.054H144.99V91.536h-9.605v30.054H123.56V91.536
		h-9.363v30.054H102.62V91.536h-9.855v30.054H81.191V91.536h-9.613v30.054H57.786v2.219h13.792v30.052h9.613v-30.052h11.574v30.052
		h9.855v-30.052h11.576v30.052h9.363v-30.052h11.825v30.052h9.605v-30.052h11.583v30.052h9.606v-30.052h11.577v30.052h9.61v-30.052
		l42.218,0v33.503H57.786v2.463h133.768v12.809H57.786v2.218h133.768v14.042H57.786v2.217h133.768v12.81H57.786v2.464h133.768v5.418
		H57.786v3.94H537.18v-3.94H403.409v-5.418H537.18v-2.464H403.409v-12.81H537.18v-2.217H403.409v-14.042H537.18v-2.218H403.409
		v-12.809H537.18v-2.463H365.519v-33.467l0.001-0.036h42.08v30.052h9.604v-30.052h11.579v30.052h4.927h4.685v-30.052h11.575v30.052
		c3.285,0,6.57,0,9.855,0v-30.052h11.579v30.052h4.682h4.681v-30.052h11.578v30.052h4.926h4.925v-30.052h11.581v30.052h4.68h4.932
		v-30.052h13.791v-2.219h-13.791V91.536h-4.932h-4.68v30.054h-11.581V91.536h-4.925h-4.926v30.054h-11.578V91.536h-4.681h-4.682
		v30.054h-11.579V91.536c-3.285,0-6.571,0-9.855,0v30.054h-11.575V91.536h-4.685h-4.927v30.054h-11.579V91.536H407.6l0,30.071
		H365.52v-0.018l-0.001-25.218h-7.922v25.257h-17.324V96.372h-8.49v25.257h-17.324V96.372h-8.243v25.257h-17.324V96.372h-8.319
		v25.257h-17.267V96.372h-8.171v25.257h-17.376V96.372H229.584L229.584,96.372z M365.519,159.776v15.755h-7.922v-15.738h-17.324
		v15.738h-8.49v-15.738h-17.324v15.738h-8.243v-15.738h-17.324v15.738h-8.319v-15.738h-17.267v15.738h-8.171v-15.738h-17.376v15.738
		h-8.173v-15.755h-35.569v44.096h5.176v-7.635h7.634v-7.393h15.555h166.004v7.393h7.88v7.635h4.935v-44.096H365.519L365.519,159.776
		z M393.803,198.698v5.174H201.405v-5.174H393.803L393.803,198.698z M401.199,206.336v5.418H194.015v-5.418H401.199L401.199,206.336
		z M497.271,93.999h2.462v57.646h-2.462h-2.462V93.999H497.271L497.271,93.999z M518.457,151.646L518.457,151.646l-2.462,0V93.999
		h2.462h2.465v57.646L518.457,151.646L518.457,151.646z M476.086,93.999h2.464v57.646h-2.464h-2.464V93.999H476.086L476.086,93.999z
		 M452.435,93.999c1.643,0,3.287,0,4.93,0v57.646c-1.643,0-3.286,0-4.93,0V93.999L452.435,93.999z M433.71,93.999h2.467v57.646
		l-2.467,0v0h-2.462V93.999H433.71L433.71,93.999z M410.064,93.999h4.924v57.646h-4.924V93.999L410.064,93.999z M229.584,123.809
		v-2.219V123.809L229.584,123.809z M184.899,93.999v57.646h-4.924V93.999H184.899L184.899,93.999z M163.715,93.999v57.646h-4.926
		V93.999H163.715L163.715,93.999z M137.603,151.646V93.999h4.924v57.646H137.603L137.603,151.646z M121.341,93.999v57.646h-4.924
		V93.999H121.341L121.341,93.999z M100.157,93.999v57.646H95.23V93.999H100.157L100.157,93.999z M74.046,151.646V93.999h4.923
		v57.646H74.046L74.046,151.646z M232.052,98.999h3.239v74.316h-3.239V98.999L232.052,98.999z M257.517,98.999h3.264v74.316h-3.264
		V98.999L257.517,98.999z M283.04,98.999h3.384v74.316h-3.384V98.999L283.04,98.999z M308.683,98.999h3.308v74.316h-3.308V98.999
		L308.683,98.999z M334.25,98.999h3.555v74.316h-3.555V98.999L334.25,98.999z M360.064,98.999h2.988v74.316h-2.988V98.999
		L360.064,98.999z M237.758,123.845h17.376v33.467h-17.376V123.845L237.758,123.845z M263.305,123.845h17.267v33.467h-17.267
		V123.845L263.305,123.845z M288.891,123.845h17.324v33.467h-17.324V123.845L288.891,123.845z M314.459,123.845h17.324v33.467
		h-17.324V123.845L314.459,123.845z M340.273,123.845h17.324v33.467h-17.324V123.845z"/>
</g>
<path fill-rule="evenodd" clip-rule="evenodd" fill="#143A68" d="M222.996,182.084h21.406v6.761l-21.406,0.001V182.084
	L222.996,182.084z M225.213,184.301v2.326h16.971v-2.326H225.213z"/>
<path fill-rule="evenodd" clip-rule="evenodd" fill="#143A68" d="M248.459,182.084h21.406v6.761l-21.406,0.001V182.084
	L248.459,182.084z M250.676,184.301v2.326h16.971v-2.326H250.676z"/>
<path fill-rule="evenodd" clip-rule="evenodd" fill="#143A68" d="M274.103,182.139h21.406v6.761l-21.406,0.001V182.139
	L274.103,182.139z M276.32,184.356v2.326h16.971v-2.326H276.32z"/>
<path fill-rule="evenodd" clip-rule="evenodd" fill="#143A68" d="M299.701,182.084h21.406v6.761l-21.406,0.001V182.084
	L299.701,182.084z M301.919,184.301v2.326h16.971v-2.326H301.919z"/>
<path fill-rule="evenodd" clip-rule="evenodd" fill="#143A68" d="M325.514,182.084h21.406v6.761l-21.406,0.001V182.084
	L325.514,182.084z M327.732,184.301v2.326h16.971v-2.326H327.732z"/>
<path fill-rule="evenodd" clip-rule="evenodd" fill="#143A68" d="M350.948,182.084h21.406v6.761l-21.406,0.001V182.084
	L350.948,182.084z M353.165,184.301v2.326h16.971v-2.326H353.165z"/>
</svg>
