<?xml version="1.0" encoding="utf-8"?>
<!-- Generator: Adobe Illustrator 17.0.0, SVG Export Plug-In . SVG Version: 6.00 Build 0)  -->
<!DOCTYPE svg PUBLIC "-//W3C//DTD SVG 1.1//EN" "http://www.w3.org/Graphics/SVG/1.1/DTD/svg11.dtd">
<svg version="1.1" id="Camada_1" xmlns="http://www.w3.org/2000/svg" xmlns:xlink="http://www.w3.org/1999/xlink" x="0px" y="0px"
	 width="595px" height="389.201px" viewBox="0 0 595 389.201" enable-background="new 0 0 595 389.201" xml:space="preserve">
<g>
	<path fill-rule="evenodd" clip-rule="evenodd" stroke="#000000" stroke-miterlimit="10" d="M537.024,298.533h-36.676
		l-39.115-35.726v35.726h-31.79v-76.448h45.523l1.68,0.005l1.654,0.016l1.627,0.026l1.601,0.037l1.574,0.047l1.548,0.058
		l1.522,0.069l1.495,0.079l1.469,0.089l1.442,0.1l1.415,0.111l1.389,0.121l1.362,0.132l1.336,0.143l1.309,0.153l1.283,0.164
		l1.256,0.174l1.229,0.184l1.202,0.195l1.176,0.206l1.149,0.216l1.122,0.227l1.096,0.237l1.069,0.248l1.042,0.258l1.016,0.269
		l0.989,0.279l0.963,0.29l0.936,0.3l0.909,0.312l0.882,0.322l0.856,0.332l0.832,0.343l0.806,0.354l0.779,0.364l0.753,0.375
		l0.726,0.385l0.7,0.397l0.674,0.407l0.647,0.418l0.62,0.429l0.594,0.439l0.568,0.45l0.541,0.461l0.515,0.471l0.489,0.482
		l0.462,0.493l0.436,0.504l0.409,0.514l0.383,0.525l0.357,0.535l0.33,0.546l0.303,0.557l0.277,0.567l0.251,0.578l0.225,0.589
		l0.198,0.599l0.172,0.609l0.145,0.62l0.119,0.631l0.092,0.641l0.066,0.652l0.04,0.663l0.013,0.674l-0.009,0.49l-0.027,0.486
		l-0.046,0.481l-0.063,0.477l-0.082,0.473l-0.099,0.468l-0.118,0.464l-0.135,0.46l-0.154,0.454l-0.172,0.45l-0.19,0.446
		l-0.208,0.441l-0.226,0.437l-0.244,0.432l-0.262,0.428l-0.28,0.423l-0.299,0.418l-0.316,0.414l-0.334,0.41l-0.353,0.405l-0.371,0.4
		l-0.389,0.397l-0.407,0.392l-0.425,0.387l-0.443,0.383l-0.461,0.378l-0.479,0.374l-0.497,0.37l-0.515,0.365l-0.533,0.361
		l-0.552,0.356l-0.569,0.351l-0.581,0.344l-0.591,0.336l-0.602,0.326l-0.613,0.318l-0.624,0.308l-0.634,0.299l-0.645,0.29
		l-0.656,0.281l-0.667,0.272l-0.677,0.263l-0.688,0.253l-0.698,0.245l-0.709,0.236l-0.719,0.227l-0.73,0.217l-0.74,0.208
		l-0.752,0.199l-0.762,0.19l-0.773,0.181l-0.783,0.172l-0.794,0.163l-0.803,0.154l-0.815,0.145l-0.825,0.136l-0.836,0.126
		l-0.845,0.117l-0.856,0.109l-0.866,0.099l-0.877,0.09l-0.888,0.082l-0.898,0.072l-0.915,0.064L537.024,298.533L537.024,298.533z
		 M461.234,254.67h4.788l1.193-0.002l1.168-0.007l1.142-0.011l1.116-0.015l1.09-0.02l1.065-0.023l1.039-0.028l1.014-0.032
		l0.989-0.037l0.963-0.04l0.937-0.045l0.912-0.049l0.885-0.053l0.861-0.057l0.835-0.061l0.81-0.066l0.784-0.071l0.758-0.074
		l0.733-0.079l0.707-0.083l0.681-0.087l0.656-0.091l0.63-0.095l0.605-0.1l0.579-0.104l0.554-0.108l0.527-0.112l0.502-0.116
		l0.476-0.121l0.451-0.125l0.425-0.129l0.4-0.133l0.381-0.139l0.369-0.145l0.357-0.151l0.345-0.157l0.333-0.164l0.321-0.17
		l0.309-0.176l0.297-0.182l0.284-0.189l0.273-0.195l0.26-0.201l0.249-0.207l0.236-0.214l0.225-0.22l0.212-0.226l0.201-0.232
		l0.188-0.239l0.176-0.245l0.164-0.251l0.152-0.258l0.14-0.264l0.128-0.27l0.115-0.276l0.104-0.283l0.091-0.289l0.08-0.295
		l0.067-0.302l0.055-0.307l0.042-0.314l0.031-0.32l0.018-0.327l0.006-0.333l-0.007-0.35l-0.019-0.343l-0.033-0.337l-0.045-0.33
		l-0.059-0.325l-0.071-0.317l-0.085-0.312l-0.097-0.304l-0.111-0.299l-0.123-0.292l-0.137-0.286l-0.149-0.279l-0.163-0.274
		l-0.175-0.266l-0.189-0.26l-0.201-0.253l-0.215-0.248l-0.228-0.241l-0.241-0.235l-0.253-0.228l-0.267-0.222l-0.279-0.216
		l-0.293-0.21l-0.305-0.202l-0.319-0.197l-0.332-0.19l-0.345-0.184l-0.357-0.177l-0.371-0.171l-0.384-0.164l-0.397-0.158
		l-0.409-0.151l-0.428-0.147l-0.451-0.142l-0.474-0.137l-0.496-0.132l-0.519-0.128l-0.542-0.123l-0.565-0.118l-0.588-0.113
		l-0.611-0.109l-0.634-0.104l-0.657-0.1l-0.679-0.094l-0.703-0.09l-0.726-0.085l-0.748-0.081l-0.771-0.076l-0.795-0.072
		l-0.817-0.067l-0.84-0.063l-0.862-0.057l-0.886-0.053l-0.908-0.049l-0.931-0.044l-0.954-0.039l-0.977-0.035l-0.999-0.03
		l-1.022-0.025l-1.045-0.021l-1.068-0.016l-1.091-0.011l-1.113-0.007l-1.136-0.002h-4.788V254.67z"/>
	<path fill-rule="evenodd" clip-rule="evenodd" stroke="#000000" stroke-miterlimit="10" d="M345.772,256.595h4.58l0.805-0.003
		l0.792-0.008l0.778-0.014l0.764-0.019l0.749-0.025l0.736-0.029l0.722-0.035l0.708-0.04l0.694-0.046l0.68-0.051l0.666-0.057
		l0.652-0.062l0.638-0.068l0.624-0.073l0.61-0.078l0.596-0.083l0.582-0.09l0.568-0.094l0.554-0.1l0.541-0.105l0.527-0.111
		l0.513-0.116l0.499-0.122l0.485-0.126l0.471-0.132l0.457-0.137l0.443-0.143l0.43-0.148l0.416-0.154l0.402-0.159l0.388-0.164
		l0.375-0.169l0.362-0.177l0.35-0.184l0.339-0.19l0.327-0.196l0.316-0.203l0.305-0.21l0.293-0.216l0.282-0.222l0.271-0.229
		l0.259-0.235l0.247-0.242l0.236-0.248l0.225-0.255l0.213-0.261l0.202-0.268l0.19-0.274l0.178-0.281l0.168-0.287l0.156-0.293
		l0.144-0.3l0.133-0.307l0.121-0.313l0.11-0.32l0.098-0.325l0.087-0.333l0.075-0.339l0.064-0.346l0.052-0.352l0.04-0.359
		l0.029-0.365l0.017-0.371l0.006-0.378l-0.006-0.35l-0.017-0.344l-0.029-0.338l-0.04-0.331l-0.052-0.325l-0.064-0.32l-0.075-0.313
		l-0.087-0.307l-0.098-0.302l-0.11-0.296l-0.121-0.289l-0.133-0.283l-0.145-0.278l-0.155-0.271l-0.168-0.266l-0.178-0.259
		l-0.19-0.254l-0.202-0.247l-0.213-0.242l-0.225-0.236l-0.236-0.23l-0.247-0.224l-0.259-0.218l-0.27-0.212l-0.282-0.207l-0.293-0.2
		l-0.305-0.195l-0.316-0.188l-0.327-0.183l-0.339-0.177l-0.35-0.171l-0.362-0.165l-0.375-0.16l-0.388-0.155l-0.402-0.15
		l-0.416-0.144l-0.43-0.139l-0.443-0.134l-0.458-0.13l-0.471-0.123l-0.485-0.119l-0.499-0.114l-0.513-0.108l-0.527-0.103
		l-0.541-0.099l-0.554-0.093l-0.568-0.088l-0.582-0.083l-0.596-0.079l-0.61-0.073l-0.624-0.068l-0.638-0.063l-0.652-0.058
		l-0.666-0.053l-0.68-0.048l-0.694-0.043l-0.708-0.038l-0.722-0.033l-0.736-0.028l-0.749-0.023l-0.764-0.018l-0.778-0.012
		l-0.792-0.008l-0.805-0.002h-4.58V256.595L345.772,256.595z M313.775,298.533v-76.448h36.577l1.812,0.005l1.782,0.017l1.753,0.028
		l1.723,0.039l1.693,0.05l1.663,0.062l1.634,0.073l1.604,0.084l1.574,0.095l1.545,0.106l1.514,0.117l1.485,0.129l1.455,0.139
		l1.425,0.151l1.395,0.163l1.366,0.174l1.335,0.185l1.306,0.196l1.276,0.207l1.246,0.219l1.215,0.23l1.186,0.241l1.156,0.252
		l1.127,0.264l1.096,0.274l1.066,0.286l1.036,0.297l1.007,0.309l0.976,0.32l0.946,0.331l0.916,0.342l0.887,0.354l0.86,0.365
		l0.833,0.378l0.806,0.39l0.779,0.402l0.751,0.414l0.724,0.427l0.696,0.438l0.669,0.451l0.641,0.463l0.615,0.475l0.586,0.488
		l0.56,0.5l0.532,0.512l0.505,0.525l0.477,0.536l0.45,0.549l0.422,0.56l0.395,0.573l0.368,0.585l0.341,0.597l0.313,0.61l0.287,0.622
		l0.259,0.634l0.232,0.646l0.204,0.658l0.177,0.671l0.15,0.683l0.123,0.696l0.095,0.707l0.069,0.72l0.04,0.732l0.014,0.744
		l-0.014,0.69l-0.041,0.681l-0.069,0.671l-0.096,0.663l-0.124,0.653l-0.151,0.643l-0.178,0.634l-0.206,0.625l-0.233,0.615
		l-0.261,0.606l-0.289,0.596l-0.315,0.588l-0.344,0.577l-0.371,0.569l-0.398,0.559l-0.425,0.55l-0.454,0.54l-0.48,0.531
		l-0.509,0.522l-0.536,0.512l-0.563,0.503l-0.591,0.494l-0.619,0.484l-0.646,0.476l-0.674,0.465l-0.702,0.457l-0.729,0.447
		l-0.756,0.438l-0.785,0.428l-0.811,0.419l-0.84,0.41l-0.867,0.401l-0.888,0.388l-0.91,0.376l-0.931,0.363l-0.952,0.352
		l-0.974,0.339l-0.995,0.327l-1.016,0.314l-1.037,0.302l-1.058,0.289l-1.08,0.277l-1.101,0.265l-1.122,0.253l-1.144,0.24
		l-1.164,0.228l-1.186,0.215l-1.206,0.204l-1.228,0.191l-1.249,0.179l-1.27,0.166l-1.291,0.154l-1.313,0.141l-1.333,0.13
		l-1.354,0.117l-1.375,0.105l-1.397,0.092l-1.418,0.08l-1.439,0.068l-1.459,0.056l-1.481,0.043l-1.501,0.031l-1.522,0.018
		l-1.543,0.007h-8.741v29.198H313.775z"/>
	<polygon fill-rule="evenodd" clip-rule="evenodd" stroke="#000000" stroke-miterlimit="10" points="204.97,298.533 204.97,222.086 
		287.973,222.086 287.973,232.633 229.132,232.633 229.132,251.694 287.973,251.694 287.973,262.597 229.132,262.597 
		229.132,298.533 	"/>
	<polygon fill-rule="evenodd" clip-rule="evenodd" stroke="#000000" stroke-miterlimit="10" points="57.922,222.086 81.771,222.086 
		81.771,268.5 81.781,269.142 81.808,269.773 81.853,270.395 81.916,271.006 81.998,271.607 82.097,272.198 82.215,272.78 
		82.35,273.351 82.505,273.912 82.677,274.462 82.868,275.003 83.076,275.534 83.302,276.055 83.547,276.566 83.81,277.066 
		84.091,277.557 84.39,278.037 84.707,278.508 85.043,278.968 85.397,279.419 85.769,279.859 86.159,280.29 86.568,280.71 
		86.994,281.121 87.44,281.521 87.903,281.911 88.385,282.292 88.884,282.663 89.403,283.024 89.938,283.375 90.493,283.715 
		91.066,284.046 91.656,284.366 92.265,284.674 92.892,284.973 93.536,285.262 94.199,285.54 94.879,285.809 95.577,286.067 
		96.293,286.316 97.027,286.554 97.778,286.781 98.548,287 99.336,287.207 100.141,287.405 100.964,287.592 101.805,287.77 
		102.664,287.937 103.542,288.094 104.436,288.241 105.349,288.377 106.279,288.504 107.228,288.621 108.194,288.727 
		109.178,288.824 110.18,288.91 111.2,288.986 112.238,289.052 113.293,289.107 114.367,289.153 115.459,289.188 116.567,289.214 
		117.695,289.229 118.839,289.234 119.982,289.229 121.105,289.214 122.212,289.188 123.299,289.153 124.37,289.107 
		125.423,289.052 126.458,288.986 127.474,288.91 128.473,288.824 129.454,288.727 130.418,288.621 131.363,288.504 
		132.292,288.377 133.201,288.241 134.093,288.094 134.967,287.937 135.824,287.77 136.663,287.592 137.485,287.405 
		138.288,287.207 139.073,287 139.841,286.781 140.591,286.554 141.324,286.316 142.038,286.067 142.736,285.809 143.415,285.54 
		144.076,285.262 144.72,284.973 145.346,284.674 145.955,284.366 146.545,284.046 147.118,283.715 147.673,283.375 
		148.209,283.024 148.727,282.663 149.227,282.292 149.708,281.911 150.171,281.521 150.616,281.121 151.043,280.71 151.451,280.29 
		151.842,279.859 152.214,279.419 152.567,278.968 152.903,278.508 153.221,278.037 153.52,277.557 153.801,277.066 
		154.064,276.566 154.309,276.055 154.535,275.534 154.744,275.003 154.934,274.462 155.106,273.912 155.26,273.351 155.396,272.78 
		155.514,272.198 155.613,271.607 155.694,271.006 155.758,270.395 155.803,269.773 155.83,269.142 155.839,268.5 155.839,222.086 
		180,222.086 180,269.659 179.986,270.62 179.941,271.566 179.867,272.497 179.763,273.413 179.63,274.314 179.466,275.199 
		179.274,276.069 179.051,276.924 178.799,277.763 178.517,278.587 178.205,279.396 177.863,280.19 177.492,280.969 
		177.091,281.732 176.66,282.48 176.2,283.214 175.71,283.931 175.19,284.633 174.64,285.32 174.06,285.992 173.451,286.649 
		172.812,287.29 172.143,287.916 171.445,288.527 170.716,289.122 169.958,289.703 169.169,290.268 168.351,290.818 
		167.504,291.352 166.626,291.872 165.718,292.376 164.781,292.865 163.813,293.339 162.816,293.797 161.788,294.241 
		160.729,294.669 159.641,295.083 158.522,295.482 157.373,295.865 156.194,296.234 154.985,296.587 153.746,296.925 
		152.476,297.248 151.176,297.557 149.847,297.85 148.486,298.129 147.097,298.392 145.676,298.64 144.226,298.873 142.746,299.091 
		141.236,299.294 139.696,299.482 138.126,299.655 136.525,299.813 134.895,299.956 133.234,300.084 131.544,300.197 
		129.824,300.294 128.074,300.377 126.294,300.445 124.484,300.497 122.644,300.535 120.774,300.558 118.874,300.566 
		116.971,300.558 115.099,300.535 113.257,300.497 111.445,300.445 109.664,300.377 107.913,300.295 106.192,300.197 
		104.501,300.084 102.841,299.956 101.211,299.814 99.611,299.656 98.042,299.483 96.503,299.295 94.994,299.093 93.516,298.875 
		92.068,298.643 90.651,298.394 89.264,298.132 87.907,297.854 86.581,297.561 85.285,297.254 84.019,296.931 82.784,296.594 
		81.579,296.242 80.405,295.874 79.261,295.491 78.148,295.094 77.065,294.682 76.013,294.254 74.991,293.812 73.999,293.355 
		73.038,292.883 72.107,292.396 71.205,291.893 70.334,291.375 69.492,290.842 68.679,290.293 67.897,289.729 67.143,289.149 
		66.419,288.555 65.726,287.944 65.061,287.319 64.427,286.678 63.822,286.022 63.246,285.35 62.7,284.663 62.184,283.96 
		61.696,283.243 61.239,282.509 60.811,281.76 60.413,280.996 60.045,280.217 59.706,279.422 59.396,278.611 59.116,277.786 
		58.865,276.944 58.644,276.087 58.452,275.215 58.291,274.328 58.158,273.425 58.055,272.506 57.981,271.572 57.937,270.624 
		57.922,269.659 	"/>
</g>
<rect x="57.681" y="311.568" fill-rule="evenodd" clip-rule="evenodd" width="479.637" height="4.112"/>
<path fill-rule="evenodd" clip-rule="evenodd" d="M57.802,325.21h3.17v9.524c0,1.416,0.41,2.476,1.235,3.189
	c0.825,0.71,2.055,1.064,3.691,1.064c1.632,0,2.857-0.355,3.682-1.064c0.825-0.713,1.235-1.774,1.235-3.189v-9.524h3.213v9.762
	c0,2.121-0.673,3.709-2.023,4.762c-1.35,1.053-3.387,1.58-6.102,1.58c-2.719,0-4.751-0.527-6.093-1.576
	c-1.341-1.05-2.009-2.637-2.009-4.766V325.21L57.802,325.21z M78.457,340.897v-16.308l12.554,9.59
	c0.346,0.271,0.691,0.56,1.041,0.867c0.35,0.307,0.719,0.655,1.106,1.042V325.21h2.972v16.297l-12.811-9.761
	c-0.342-0.264-0.673-0.541-0.991-0.834c-0.323-0.296-0.626-0.6-0.912-0.922v10.906H78.457L78.457,340.897z M100.72,340.897V325.21
	h3.212v15.687H100.72L100.72,340.897z M114.827,341.508l-8.816-16.297h3.336l4.429,8.357c0.258,0.486,0.475,0.932,0.645,1.346
	c0.171,0.41,0.309,0.801,0.406,1.174c0.12-0.395,0.267-0.801,0.447-1.221c0.18-0.424,0.392-0.856,0.636-1.298l4.41-8.357h3.323
	L114.827,341.508L114.827,341.508z M125.643,340.897V325.21h11.033v2.165h-7.82v3.932h7.82v2.238h-7.82v5.069h7.82v2.282H125.643
	L125.643,340.897z M143.57,331.896h0.581c1.7,0,2.83-0.157,3.387-0.472c0.558-0.315,0.839-0.871,0.839-1.672
	c0-0.863-0.3-1.47-0.899-1.825c-0.599-0.355-1.71-0.53-3.327-0.53h-0.581V331.896L143.57,331.896z M143.368,333.878v7.018h-3.01
	V325.21h4.48c1.313,0,2.336,0.07,3.06,0.205c0.723,0.135,1.341,0.358,1.857,0.673c0.613,0.38,1.083,0.871,1.419,1.47
	c0.332,0.6,0.498,1.254,0.498,1.971c0,1.255-0.382,2.238-1.147,2.952c-0.765,0.71-1.899,1.137-3.392,1.28l6.807,7.136h-3.631
	l-6.576-7.018H143.368L143.368,333.878z M154.709,337.755l2.562-0.94c0.244,0.699,0.692,1.233,1.337,1.598
	c0.65,0.369,1.479,0.552,2.484,0.552c0.954,0,1.714-0.212,2.276-0.633c0.562-0.421,0.844-0.984,0.844-1.69
	c0-0.922-0.963-1.744-2.89-2.465c-0.272-0.106-0.475-0.187-0.622-0.234c-2.175-0.845-3.627-1.606-4.35-2.29
	c-0.724-0.681-1.088-1.518-1.088-2.502c0-1.28,0.548-2.315,1.641-3.109c1.092-0.793,2.525-1.189,4.3-1.189
	c1.456,0,2.678,0.223,3.659,0.669c0.981,0.446,1.659,1.09,2.037,1.924l-2.512,1.028c-0.396-0.494-0.83-0.852-1.304-1.079
	c-0.47-0.23-1.014-0.344-1.627-0.344c-0.862,0-1.549,0.179-2.056,0.534c-0.511,0.359-0.765,0.838-0.765,1.437
	c0,0.944,1.115,1.821,3.35,2.633c0.17,0.066,0.304,0.117,0.401,0.15c1.954,0.717,3.295,1.415,4.027,2.095
	c0.729,0.684,1.092,1.536,1.092,2.557c0,1.485-0.59,2.666-1.77,3.54c-1.18,0.874-2.77,1.313-4.779,1.313
	c-1.682,0-3.06-0.307-4.138-0.922C155.746,339.777,155.041,338.9,154.709,337.755L154.709,337.755z M171.073,340.897V325.21h3.212
	v15.687H171.073L171.073,340.897z M182.115,338.593h2.701c1.484,0,2.599-0.077,3.341-0.234c0.742-0.157,1.387-0.424,1.94-0.794
	c0.747-0.508,1.304-1.137,1.678-1.891c0.373-0.753,0.562-1.631,0.562-2.633c0-0.998-0.189-1.876-0.562-2.63
	c-0.373-0.753-0.931-1.382-1.678-1.89c-0.558-0.37-1.23-0.637-2.005-0.794c-0.779-0.157-2-0.234-3.654-0.234h-1.161h-1.162V338.593
	L182.115,338.593z M178.903,340.897V325.21h4.332c2.821,0,4.802,0.113,5.95,0.337c1.148,0.227,2.152,0.603,3.018,1.13
	c1.143,0.695,2.01,1.583,2.6,2.67c0.59,1.086,0.884,2.326,0.884,3.716c0,1.393-0.295,2.63-0.884,3.705
	c-0.59,1.075-1.457,1.96-2.6,2.663c-0.866,0.527-1.848,0.903-2.949,1.13c-1.106,0.223-2.82,0.336-5.152,0.336h-0.867H178.903
	L178.903,340.897z M203.056,334.734h5.507l-2.023-3.577c-0.116-0.23-0.24-0.494-0.364-0.79c-0.124-0.296-0.254-0.625-0.378-0.991
	c-0.111,0.344-0.221,0.666-0.346,0.962c-0.12,0.296-0.244,0.567-0.368,0.819L203.056,334.734L203.056,334.734z M211.941,340.897
	l-2.244-4.041h-7.826l-2.295,4.041h-3.378l9.572-16.308l9.558,16.308H211.941L211.941,340.897z M220.407,338.593h2.701
	c1.484,0,2.599-0.077,3.341-0.234c0.742-0.157,1.387-0.424,1.94-0.794c0.747-0.508,1.304-1.137,1.677-1.891
	c0.373-0.753,0.562-1.631,0.562-2.633c0-0.998-0.189-1.876-0.562-2.63c-0.373-0.753-0.931-1.382-1.677-1.89
	c-0.558-0.37-1.23-0.637-2.005-0.794c-0.778-0.157-2-0.234-3.654-0.234h-1.161h-1.161V338.593L220.407,338.593z M217.195,340.897
	V325.21h4.332c2.82,0,4.802,0.113,5.949,0.337c1.148,0.227,2.152,0.603,3.019,1.13c1.143,0.695,2.009,1.583,2.6,2.67
	c0.59,1.086,0.884,2.326,0.884,3.716c0,1.393-0.295,2.63-0.884,3.705c-0.59,1.075-1.457,1.96-2.6,2.663
	c-0.866,0.527-1.848,0.903-2.949,1.13c-1.106,0.223-2.821,0.336-5.152,0.336h-0.867H217.195L217.195,340.897z M237.661,340.897
	V325.21h11.032v2.165h-7.82v3.932h7.82v2.238h-7.82v5.069h7.82v2.282H237.661L237.661,340.897z M260.722,340.897V325.21h11.033
	v2.165h-7.82v3.91h7.82v2.238h-7.82v7.373H260.722L260.722,340.897z M275.234,340.897V325.21h11.033v2.165h-7.821v3.932h7.821v2.238
	h-7.821v5.069h7.821v2.282H275.234L275.234,340.897z M293.161,338.593h2.701c1.484,0,2.599-0.077,3.341-0.234
	c0.742-0.157,1.387-0.424,1.94-0.794c0.746-0.508,1.304-1.137,1.677-1.891c0.373-0.753,0.562-1.631,0.562-2.633
	c0-0.998-0.189-1.876-0.562-2.63c-0.373-0.753-0.931-1.382-1.677-1.89c-0.557-0.37-1.23-0.637-2.005-0.794
	c-0.779-0.157-2-0.234-3.655-0.234h-1.161h-1.162V338.593L293.161,338.593z M289.949,340.897V325.21h4.332
	c2.82,0,4.802,0.113,5.949,0.337c1.148,0.227,2.153,0.603,3.019,1.13c1.143,0.695,2.01,1.583,2.599,2.67
	c0.59,1.086,0.885,2.326,0.885,3.716c0,1.393-0.295,2.63-0.885,3.705c-0.59,1.075-1.456,1.96-2.599,2.663
	c-0.866,0.527-1.848,0.903-2.949,1.13c-1.106,0.223-2.82,0.336-5.152,0.336h-0.867H289.949L289.949,340.897z M310.415,340.897
	V325.21h11.033v2.165h-7.82v3.932h7.82v2.238h-7.82v5.069h7.82v2.282H310.415L310.415,340.897z M328.342,331.896h0.581
	c1.7,0,2.829-0.157,3.387-0.472c0.557-0.315,0.839-0.871,0.839-1.672c0-0.863-0.3-1.47-0.899-1.825
	c-0.599-0.355-1.71-0.53-3.327-0.53h-0.581V331.896L328.342,331.896z M328.139,333.878v7.018h-3.01V325.21h4.48
	c1.314,0,2.337,0.07,3.06,0.205c0.724,0.135,1.341,0.358,1.858,0.673c0.613,0.38,1.083,0.871,1.419,1.47
	c0.332,0.6,0.497,1.254,0.497,1.971c0,1.255-0.382,2.238-1.147,2.952c-0.765,0.71-1.899,1.137-3.392,1.28l6.807,7.136h-3.632
	l-6.576-7.018H328.139L328.139,333.878z M344.785,334.734h5.507l-2.023-3.577c-0.116-0.23-0.24-0.494-0.364-0.79
	c-0.124-0.296-0.254-0.625-0.378-0.991c-0.11,0.344-0.221,0.666-0.346,0.962c-0.12,0.296-0.244,0.567-0.368,0.819L344.785,334.734
	L344.785,334.734z M353.67,340.897h3.387l-9.558-16.308l-9.572,16.308h3.378l2.295-4.041h7.825L353.67,340.897L353.67,340.897z
	 M358.924,340.897V325.21h3.212v13.404h7.185v2.282H358.924L358.924,340.897z M383.482,338.593h2.7c1.484,0,2.599-0.077,3.341-0.234
	c0.742-0.157,1.387-0.424,1.94-0.794c0.747-0.508,1.305-1.137,1.677-1.891c0.373-0.753,0.562-1.631,0.562-2.633
	c0-0.998-0.189-1.876-0.562-2.63c-0.373-0.753-0.931-1.382-1.677-1.89c-0.557-0.37-1.23-0.637-2.004-0.794
	c-0.779-0.157-2-0.234-3.655-0.234h-1.161h-1.162V338.593L383.482,338.593z M380.27,340.897V325.21h4.332
	c2.82,0,4.802,0.113,5.949,0.337c1.148,0.227,2.152,0.603,3.018,1.13c1.143,0.695,2.01,1.583,2.6,2.67
	c0.59,1.086,0.885,2.326,0.885,3.716c0,1.393-0.295,2.63-0.885,3.705c-0.59,1.075-1.457,1.96-2.6,2.663
	c-0.866,0.527-1.848,0.903-2.949,1.13c-1.106,0.223-2.82,0.336-5.152,0.336h-0.866H380.27L380.27,340.897z M417.654,333.084
	c0-0.79-0.184-1.543-0.548-2.26c-0.364-0.713-0.885-1.35-1.572-1.906c-0.664-0.552-1.438-0.973-2.313-1.269
	c-0.88-0.296-1.802-0.446-2.775-0.446s-1.899,0.146-2.774,0.439c-0.876,0.293-1.659,0.717-2.341,1.276
	c-0.682,0.549-1.207,1.181-1.567,1.894c-0.359,0.717-0.539,1.474-0.539,2.271c0,0.794,0.18,1.544,0.539,2.253
	c0.36,0.706,0.885,1.339,1.567,1.895c0.682,0.56,1.461,0.984,2.337,1.276c0.871,0.293,1.797,0.439,2.779,0.439
	c0.963,0,1.88-0.146,2.747-0.439c0.866-0.292,1.65-0.717,2.341-1.276c0.687-0.556,1.207-1.189,1.572-1.902
	C417.47,334.62,417.654,333.871,417.654,333.084L417.654,333.084z M421.004,333.084c0,1.115-0.263,2.169-0.788,3.16
	c-0.53,0.995-1.295,1.88-2.304,2.659c-1.018,0.779-2.166,1.375-3.443,1.789c-1.276,0.413-2.617,0.622-4.023,0.622
	c-1.424,0-2.779-0.209-4.069-0.625c-1.295-0.421-2.433-1.013-3.424-1.785c-1.01-0.779-1.775-1.66-2.295-2.648
	c-0.521-0.984-0.784-2.041-0.784-3.171c0-1.123,0.263-2.18,0.784-3.171c0.521-0.995,1.285-1.884,2.295-2.67
	c1.009-0.779,2.152-1.371,3.428-1.777c1.277-0.406,2.631-0.611,4.065-0.611c1.424,0,2.77,0.205,4.042,0.611
	c1.277,0.406,2.415,0.998,3.424,1.777c1.009,0.794,1.774,1.69,2.304,2.685C420.741,330.927,421.004,331.976,421.004,333.084
	L421.004,333.084z M436.245,331.768h0.825c1.784,0,2.972-0.154,3.567-0.461s0.889-0.849,0.889-1.627
	c0-0.838-0.318-1.426-0.954-1.766c-0.632-0.344-1.802-0.516-3.503-0.516h-0.825V331.768L436.245,331.768z M436.042,333.856v7.041
	h-3.009V325.21h4.862c1.437,0,2.498,0.062,3.18,0.186c0.677,0.124,1.272,0.333,1.774,0.618c0.622,0.362,1.111,0.855,1.461,1.47
	c0.35,0.618,0.525,1.298,0.525,2.044c0,0.742-0.175,1.426-0.525,2.055c-0.35,0.629-0.839,1.123-1.461,1.478
	c-0.502,0.285-1.097,0.49-1.774,0.611c-0.682,0.12-1.742,0.182-3.18,0.182h-0.636H436.042L436.042,333.856z M450.407,334.734h5.507
	l-2.023-3.577c-0.115-0.23-0.24-0.494-0.364-0.79c-0.124-0.296-0.254-0.625-0.378-0.991c-0.111,0.344-0.221,0.666-0.346,0.962
	c-0.12,0.296-0.244,0.567-0.368,0.819L450.407,334.734L450.407,334.734z M459.292,340.897h3.387l-9.558-16.308l-9.572,16.308h3.378
	l2.295-4.041h7.825L459.292,340.897L459.292,340.897z M467.757,331.896h0.581c1.7,0,2.829-0.157,3.387-0.472
	c0.558-0.315,0.839-0.871,0.839-1.672c0-0.863-0.3-1.47-0.899-1.825c-0.599-0.355-1.71-0.53-3.327-0.53h-0.581V331.896
	L467.757,331.896z M467.555,333.878v7.018h-3.01V325.21h4.48c1.314,0,2.336,0.07,3.06,0.205c0.723,0.135,1.341,0.358,1.857,0.673
	c0.613,0.38,1.083,0.871,1.419,1.47c0.332,0.6,0.498,1.254,0.498,1.971c0,1.255-0.382,2.238-1.147,2.952
	c-0.766,0.71-1.899,1.137-3.392,1.28l6.807,7.136h-3.632l-6.576-7.018H467.555L467.555,333.878z M484.2,334.734h5.507l-2.023-3.577
	c-0.115-0.23-0.24-0.494-0.364-0.79c-0.124-0.296-0.253-0.625-0.378-0.991c-0.111,0.344-0.221,0.666-0.346,0.962
	c-0.12,0.296-0.244,0.567-0.368,0.819L484.2,334.734L484.2,334.734z M493.086,340.897h3.387l-9.558-16.308l-9.572,16.308h3.378
	l2.295-4.041h7.826L493.086,340.897L493.086,340.897z M498.339,340.897v-16.308l12.553,9.59c0.346,0.271,0.691,0.56,1.042,0.867
	c0.35,0.307,0.719,0.655,1.106,1.042V325.21h2.972v16.297l-12.811-9.761c-0.341-0.264-0.673-0.541-0.991-0.834
	c-0.323-0.296-0.627-0.6-0.913-0.922v10.906H498.339L498.339,340.897z M524.718,334.734h5.507l-2.023-3.577
	c-0.115-0.23-0.24-0.494-0.364-0.79c-0.125-0.296-0.253-0.625-0.378-0.991c-0.111,0.344-0.222,0.666-0.346,0.962
	c-0.12,0.296-0.244,0.567-0.368,0.819L524.718,334.734L524.718,334.734z M533.603,340.897l-2.244-4.041h-7.826l-2.295,4.041h-3.378
	l9.572-16.308l9.558,16.308H533.603L533.603,340.897z M525.529,323.667l2.567-2.915h3.037l-3.945,2.915H525.529z"/>
<rect x="70.244" y="82.824" fill-rule="evenodd" clip-rule="evenodd" width="12.317" height="2.215"/>
<rect x="512.194" y="82.824" fill-rule="evenodd" clip-rule="evenodd" width="12.318" height="2.215"/>
<rect x="70.244" y="148.846" fill-rule="evenodd" clip-rule="evenodd" width="12.317" height="2.215"/>
<rect x="512.194" y="148.846" fill-rule="evenodd" clip-rule="evenodd" width="12.318" height="2.215"/>
<rect x="91.427" y="82.824" fill-rule="evenodd" clip-rule="evenodd" width="12.321" height="2.215"/>
<rect x="491.006" y="82.824" fill-rule="evenodd" clip-rule="evenodd" width="12.32" height="2.215"/>
<rect x="91.427" y="148.846" fill-rule="evenodd" clip-rule="evenodd" width="12.321" height="2.215"/>
<rect x="491.006" y="148.846" fill-rule="evenodd" clip-rule="evenodd" width="12.32" height="2.215"/>
<rect x="112.615" y="82.824" fill-rule="evenodd" clip-rule="evenodd" width="12.318" height="2.215"/>
<rect x="469.824" y="82.824" fill-rule="evenodd" clip-rule="evenodd" width="12.316" height="2.215"/>
<rect x="112.615" y="148.846" fill-rule="evenodd" clip-rule="evenodd" width="12.318" height="2.215"/>
<rect x="469.824" y="148.846" fill-rule="evenodd" clip-rule="evenodd" width="12.316" height="2.215"/>
<rect x="133.804" y="82.824" fill-rule="evenodd" clip-rule="evenodd" width="12.316" height="2.215"/>
<rect x="448.637" y="82.824" fill-rule="evenodd" clip-rule="evenodd" width="12.316" height="2.215"/>
<rect x="133.804" y="148.846" fill-rule="evenodd" clip-rule="evenodd" width="12.316" height="2.215"/>
<rect x="448.637" y="148.846" fill-rule="evenodd" clip-rule="evenodd" width="12.316" height="2.215"/>
<rect x="154.988" y="82.824" fill-rule="evenodd" clip-rule="evenodd" width="12.563" height="2.215"/>
<rect x="427.204" y="82.824" fill-rule="evenodd" clip-rule="evenodd" width="12.561" height="2.215"/>
<rect x="154.988" y="148.846" fill-rule="evenodd" clip-rule="evenodd" width="12.563" height="2.215"/>
<rect x="427.204" y="148.846" fill-rule="evenodd" clip-rule="evenodd" width="12.561" height="2.215"/>
<rect x="176.174" y="82.824" fill-rule="evenodd" clip-rule="evenodd" width="12.318" height="2.215"/>
<rect x="406.265" y="82.824" fill-rule="evenodd" clip-rule="evenodd" width="12.317" height="2.215"/>
<rect x="176.174" y="148.846" fill-rule="evenodd" clip-rule="evenodd" width="12.318" height="2.215"/>
<rect x="406.265" y="148.846" fill-rule="evenodd" clip-rule="evenodd" width="12.317" height="2.215"/>
<rect x="303.571" y="83.069" fill-rule="evenodd" clip-rule="evenodd" width="13.547" height="2.218"/>
<rect x="306.036" y="86.273" fill-rule="evenodd" clip-rule="evenodd" width="8.866" height="1.723"/>
<g>
	<rect x="216.575" y="63.363" fill-rule="evenodd" clip-rule="evenodd" width="161.853" height="2.463"/>
	<path fill-rule="evenodd" clip-rule="evenodd" d="M401.073,79.845v-8.624l-26.297,0.022v8.615L401.073,79.845L401.073,79.845z
		 M393.683,68.759l44.608-15.743h-70.213l15.026,5.174v2.462H211.895V58.19l15.028-5.174h-19.954h-31.534h-18.967l18.967,6.649
		l25.865,9.118L393.683,68.759L393.683,68.759z M400.576,68.759l64.816-22.641l64.784,22.664L400.576,68.759L400.576,68.759z
		 M403.537,71.221v8.624l61.854,0.021h62.075v-8.623L403.537,71.221L403.537,71.221z M297.625,82.321v0.012H175.435l0,0H57.681
		v-2.466h7.39v-8.623h-7.39v-2.46l45.081-15.766H57.681v-2.219h51.487l20.201-7.144l0,0h0.243l20.202,7.144h25.621l0,0h31.534l0,0
		h26.605l64.051-22.663l0,0h0.246l63.802,22.663h57.896l0,0h25.37l20.453-7.389l20.195,7.389h51.49v2.219H492.24l44.836,15.766v2.46
		h-7.139v8.623h7.382v2.466h-71.927l0,0L297.625,82.321L297.625,82.321z M297.421,79.866v-0.008h75.133v-8.615H222.491v8.623
		H297.421L297.421,79.866z M376.209,58.19H218.794l78.831-27.347l0.246-0.248L376.209,58.19L376.209,58.19z M297.625,82.333
		L297.625,82.333L297.625,82.333z M220.272,79.866v-8.623h-26.361v8.623H220.272L220.272,79.866z M175.435,79.866h16.014v-8.623
		h-16.014H67.287v8.623H175.435L175.435,79.866z M175.435,68.783L175.435,68.783H64.331l65.039-22.664h0.243l45.823,16.01
		l18.97,6.654H175.435L175.435,68.783z M57.681,50.797"/>
</g>
<rect x="226.794" y="83.065" fill-rule="evenodd" clip-rule="evenodd" width="13.548" height="2.217"/>
<rect x="229.011" y="86.268" fill-rule="evenodd" clip-rule="evenodd" width="9.116" height="1.724"/>
<rect x="303.497" y="83.065" fill-rule="evenodd" clip-rule="evenodd" width="13.551" height="2.217"/>
<rect x="305.716" y="86.268" fill-rule="evenodd" clip-rule="evenodd" width="9.116" height="1.724"/>
<rect x="329.311" y="83.065" fill-rule="evenodd" clip-rule="evenodd" width="13.55" height="2.217"/>
<rect x="331.53" y="86.268" fill-rule="evenodd" clip-rule="evenodd" width="9.113" height="1.724"/>
<rect x="278.054" y="83.252" fill-rule="evenodd" clip-rule="evenodd" width="13.3" height="2.217"/>
<rect x="280.267" y="86.455" fill-rule="evenodd" clip-rule="evenodd" width="8.868" height="1.724"/>
<rect x="252.41" y="83.145" fill-rule="evenodd" clip-rule="evenodd" width="13.301" height="2.216"/>
<rect x="254.624" y="86.346" fill-rule="evenodd" clip-rule="evenodd" width="8.867" height="1.724"/>
<rect x="354.901" y="83.065" fill-rule="evenodd" clip-rule="evenodd" width="13.3" height="2.217"/>
<rect x="357.117" y="86.268" fill-rule="evenodd" clip-rule="evenodd" width="8.867" height="1.724"/>
<rect x="224.975" y="171.995" fill-rule="evenodd" clip-rule="evenodd" width="17.242" height="2.22"/>
<rect x="301.678" y="171.995" fill-rule="evenodd" clip-rule="evenodd" width="17.241" height="2.22"/>
<rect x="327.49" y="171.995" fill-rule="evenodd" clip-rule="evenodd" width="17.242" height="2.22"/>
<rect x="276.08" y="172.183" fill-rule="evenodd" clip-rule="evenodd" width="17.245" height="2.219"/>
<rect x="250.435" y="172.076" fill-rule="evenodd" clip-rule="evenodd" width="17.247" height="2.218"/>
<rect x="352.927" y="171.996" fill-rule="evenodd" clip-rule="evenodd" width="17.244" height="2.219"/>
<g>
	<path fill-rule="evenodd" clip-rule="evenodd" d="M386.065,185.306v5.175H208.94v-5.175H386.065L386.065,185.306z M229.48,90.616
		v25.218h-42.218V85.78h-9.61v30.054h-11.577V85.78h-9.606v30.054h-11.583V85.78h-9.605v30.054h-11.825V85.78h-9.363v30.054h-11.576
		V85.78h-9.855v30.054H81.087V85.78h-9.613v30.054H57.681v2.219h13.792v30.052h9.613v-30.052h11.574v30.052h9.855v-30.052h11.576
		v30.052h9.363v-30.052h11.825v30.052h9.605v-30.052h11.583v30.052h9.606v-30.052h11.577v30.052h9.61v-30.052l42.218,0v33.503
		H57.681v2.463h133.768v12.809H57.681v2.218h133.768v14.042H57.681v2.217h133.768v12.81H57.681v2.464h133.768v5.418H57.681v3.94
		h479.394v-3.94H403.305v-5.418h133.771v-2.464H403.305v-12.81h133.771v-2.217H403.305v-14.042h133.771v-2.218H403.305V154.02
		h133.771v-2.463H365.415V118.09l0.001-0.036h42.08v30.052h9.604v-30.052h11.579v30.052h4.927h4.685v-30.052h11.575v30.052
		c3.285,0,6.57,0,9.855,0v-30.052H471.3v30.052h4.682h4.681v-30.052h11.578v30.052h4.926h4.925v-30.052h11.581v30.052h4.68h4.932
		v-30.052h13.791v-2.219h-13.791V85.78h-4.932h-4.68v30.054h-11.581V85.78h-4.925h-4.926v30.054h-11.578V85.78h-4.681H471.3v30.054
		h-11.579V85.78c-3.285,0-6.571,0-9.855,0v30.054H438.29V85.78h-4.685h-4.927v30.054h-11.579V85.78h-9.604l0,30.071h-42.079v-0.017
		l-0.001-25.218h-7.923v25.257h-17.324V90.616h-8.49v25.257h-17.324V90.616h-8.243v25.257h-17.324V90.616h-8.319v25.257H263.2
		V90.616h-8.171v25.257h-17.376V90.616H229.48L229.48,90.616z M365.415,154.02v15.755h-7.923v-15.738h-17.324v15.738h-8.49v-15.738
		h-17.324v15.738h-8.243v-15.738h-17.324v15.738h-8.319v-15.738H263.2v15.738h-8.171v-15.738h-17.376v15.738h-8.173V154.02h-35.569
		v44.096h5.176v-7.635h7.634v-7.393h15.555h166.004v7.393h7.88v7.635h4.934V154.02H365.415L365.415,154.02z M393.698,192.942v5.174
		H201.3v-5.174H393.698L393.698,192.942z M401.094,200.58v5.418H193.911v-5.418H401.094L401.094,200.58z M497.166,88.244h2.462
		v57.646h-2.462h-2.462V88.244H497.166L497.166,88.244z M518.352,145.89L518.352,145.89l-2.462,0V88.244h2.462h2.465v57.646
		L518.352,145.89L518.352,145.89z M475.982,88.244h2.464v57.646h-2.464h-2.464V88.244H475.982L475.982,88.244z M452.33,88.244
		c1.643,0,3.287,0,4.93,0v57.646c-1.643,0-3.286,0-4.93,0V88.244L452.33,88.244z M433.606,88.244h2.467v57.646l-2.467,0v0h-2.462
		V88.244H433.606L433.606,88.244z M409.959,88.244h4.924v57.646h-4.924V88.244L409.959,88.244z M229.48,118.054v-2.219V118.054
		L229.48,118.054z M184.795,88.244v57.646h-4.924V88.244H184.795L184.795,88.244z M163.611,88.244v57.646h-4.926V88.244H163.611
		L163.611,88.244z M137.498,145.89V88.244h4.924v57.646H137.498L137.498,145.89z M121.236,88.244v57.646h-4.924V88.244H121.236
		L121.236,88.244z M100.053,88.244v57.646h-4.927V88.244H100.053L100.053,88.244z M73.941,145.89V88.244h4.923v57.646H73.941
		L73.941,145.89z M231.947,93.243h3.239v74.316h-3.239V93.243L231.947,93.243z M257.413,93.243h3.264v74.316h-3.264V93.243
		L257.413,93.243z M282.935,93.243h3.384v74.316h-3.384V93.243L282.935,93.243z M308.579,93.243h3.308v74.316h-3.308V93.243
		L308.579,93.243z M334.146,93.243h3.555v74.316h-3.555V93.243L334.146,93.243z M359.96,93.243h2.988v74.316h-2.988V93.243
		L359.96,93.243z M237.653,118.09h17.376v33.467h-17.376V118.09L237.653,118.09z M263.2,118.09h17.268v33.467H263.2V118.09
		L263.2,118.09z M288.787,118.09h17.324v33.467h-17.324V118.09L288.787,118.09z M314.354,118.09h17.324v33.467h-17.324V118.09
		L314.354,118.09z M340.168,118.09h17.324v33.467h-17.324V118.09z"/>
</g>
<path fill-rule="evenodd" clip-rule="evenodd" d="M222.891,176.328h21.406v6.761l-21.406,0.001V176.328L222.891,176.328z
	 M225.109,178.545v2.326h16.971v-2.326H225.109z"/>
<path fill-rule="evenodd" clip-rule="evenodd" d="M248.354,176.328h21.406v6.761l-21.406,0.001V176.328L248.354,176.328z
	 M250.572,178.545v2.326h16.971v-2.326H250.572z"/>
<path fill-rule="evenodd" clip-rule="evenodd" d="M273.998,176.383h21.406v6.761l-21.406,0.001V176.383L273.998,176.383z
	 M276.216,178.6v2.326h16.971V178.6H276.216z"/>
<path fill-rule="evenodd" clip-rule="evenodd" d="M299.597,176.328h21.406v6.761l-21.406,0.001V176.328L299.597,176.328z
	 M301.814,178.545v2.326h16.971v-2.326H301.814z"/>
<path fill-rule="evenodd" clip-rule="evenodd" d="M325.41,176.328h21.406v6.761l-21.406,0.001V176.328L325.41,176.328z
	 M327.627,178.545v2.326h16.971v-2.326H327.627z"/>
<path fill-rule="evenodd" clip-rule="evenodd" d="M350.843,176.328h21.406v6.761l-21.406,0.001V176.328L350.843,176.328z
	 M353.061,178.545v2.326h16.971v-2.326H353.061z"/>
</svg>
